<?xml version="1.0" encoding="utf-8"?>
<!-- Generator: Adobe Illustrator 18.0.0, SVG Export Plug-In . SVG Version: 6.00 Build 0)  -->
<!DOCTYPE svg PUBLIC "-//W3C//DTD SVG 1.1//EN" "http://www.w3.org/Graphics/SVG/1.1/DTD/svg11.dtd">
<svg version="1.1" id="Camada_1" xmlns="http://www.w3.org/2000/svg" xmlns:xlink="http://www.w3.org/1999/xlink" x="0px" y="0px"
	 viewBox="0 0 23 23" enable-background="new 0 0 23 23" xml:space="preserve">
<g>
	<polygon fill="#FFFFFF" points="7.2,12.2 9.8,12.2 8.5,8.4 	"/>
	<path fill="#FFFFFF" d="M11.5,0C5.1,0,0,5.1,0,11.5C0,17.8,5.1,23,11.5,23C17.8,23,23,17.8,23,11.5C23,5.1,17.8,0,11.5,0z
		 M11.4,16.7l-1-2.9H6.6l-1,2.9H3.8L7.5,6.3h1.9l3.9,10.4H11.4z M19.2,11.2h-3v3h-1.6v-3h-3V9.6h3v-3h1.6v3h3V11.2z"/>
</g>
</svg>
