<?xml version="1.0" encoding="utf-8"?>
<!-- Generator: Adobe Illustrator 18.0.0, SVG Export Plug-In . SVG Version: 6.00 Build 0)  -->
<!DOCTYPE svg PUBLIC "-//W3C//DTD SVG 1.1//EN" "http://www.w3.org/Graphics/SVG/1.1/DTD/svg11.dtd">
<svg version="1.1" id="Camada_1" xmlns="http://www.w3.org/2000/svg" xmlns:xlink="http://www.w3.org/1999/xlink" x="0px" y="0px"
	 viewBox="0 0 23 23" enable-background="new 0 0 23 23" xml:space="preserve">
<path fill="#FFFFFF" d="M11.5,0C5.1,0,0,5.1,0,11.5S5.1,23,11.5,23C17.8,23,23,17.8,23,11.5S17.8,0,11.5,0z M18.7,13.6
	c0,0-0.1,0-0.1,0.1c-0.3,0.1-0.7-0.1-0.8-0.4c-0.7-2-2.4-3.5-4.5-3.8h0C10.6,9,8,10.5,7,12.9l1.1-0.6c0.1-0.1,0.3-0.1,0.5-0.1
	c0.2,0,0.3,0.1,0.4,0.3c0.2,0.3,0.1,0.6-0.2,0.8l-2.4,1.4c-0.1,0.1-0.2,0.1-0.3,0.1c-0.2,0-0.4-0.1-0.5-0.3l0,0l-1.4-2.3
	C4,12,4,11.8,4,11.7c0-0.2,0.1-0.3,0.3-0.4c0.1-0.1,0.3-0.1,0.5-0.1c0.2,0,0.3,0.1,0.4,0.3l0.7,1.1c0.5-1.2,1.3-2.3,2.4-3.1
	c1.5-1.1,3.4-1.5,5.2-1.2c2.5,0.4,4.6,2.2,5.5,4.6C19,13.2,18.9,13.4,18.7,13.6z"/>
</svg>
