<?xml version="1.0" encoding="utf-8"?>
<!-- Generator: Adobe Illustrator 18.0.0, SVG Export Plug-In . SVG Version: 6.00 Build 0)  -->
<!DOCTYPE svg PUBLIC "-//W3C//DTD SVG 1.1//EN" "http://www.w3.org/Graphics/SVG/1.1/DTD/svg11.dtd">
<svg version="1.1" id="Camada_1" xmlns="http://www.w3.org/2000/svg" xmlns:xlink="http://www.w3.org/1999/xlink" x="0px" y="0px"
	 viewBox="0 0 23 23" enable-background="new 0 0 23 23" xml:space="preserve">
<path fill="#FFFFFF" d="M11.5,0C5.1,0,0,5.1,0,11.5S5.1,23,11.5,23S23,17.8,23,11.5S17.8,0,11.5,0z M3.8,13.8c0,0-0.1,0-0.1,0
	c-0.2,0-0.4-0.2-0.5-0.4c-0.7-3,0.2-6.2,2.5-8.3c1.7-1.5,3.8-2.3,6.1-2.2c1.8,0.1,3.5,0.7,4.9,1.9l-0.1-2.1c0-0.3,0.2-0.5,0.5-0.5
	c0.3,0,0.5,0.2,0.5,0.5L17.8,6v0.1c0,0.3-0.2,0.5-0.5,0.5l-3.4,0.1h0c-0.3,0-0.5-0.2-0.5-0.5c0-0.3,0.2-0.5,0.5-0.5l2.2-0.1
	c-2.8-2.3-6.9-2.2-9.7,0.3c-2,1.8-2.9,4.6-2.2,7.3C4.3,13.4,4.1,13.7,3.8,13.8z M8.5,9.8V8.3h6v1.5h-2.1v5.9h-1.7V9.8H8.5z
	 M17.2,17.9c-1.6,1.4-3.6,2.2-5.7,2.2c-0.1,0-0.3,0-0.4,0c-1.8-0.1-3.5-0.7-4.9-1.9l0.2,2.1c0,0.3-0.2,0.5-0.5,0.6c0,0,0,0,0,0
	c-0.3,0-0.5-0.2-0.5-0.5L5.1,17c0-0.3,0.2-0.5,0.5-0.6L9,16.1c0.3,0,0.5,0.2,0.6,0.5c0,0.3-0.2,0.5-0.5,0.6l-2.2,0.2
	c1.4,1.1,3.1,1.7,4.8,1.7c1.8,0,3.6-0.6,5-1.9c2-1.8,2.9-4.6,2.2-7.3c-0.1-0.3,0.1-0.6,0.4-0.6c0.3-0.1,0.6,0.1,0.6,0.4
	C20.5,12.6,19.5,15.8,17.2,17.9z"/>
</svg>
